<svg aria-hidden="true" style="position: absolute; width: 0; height: 0; overflow: hidden;" version="1.1" xmlns="http://www.w3.org/2000/svg" xmlns:xlink="http://www.w3.org/1999/xlink">
<defs>
<symbol id="icon-burger-menu" viewBox="0 0 51 32">
<path d="M2.441 32h48.025v-5.333h-48.025v5.333zM2.441 18.667h48.025v-5.333h-48.025v5.333zM2.441 0v5.333h48.025v-5.333h-48.025z"></path>
</symbol>
<symbol id="icon-search" viewBox="0 0 33 32">
<path d="M21.841 18.667h-1.053l-0.373-0.36c1.307-1.52 2.093-3.493 2.093-5.64 0-4.787-3.88-8.667-8.667-8.667s-8.667 3.88-8.667 8.667c0 4.787 3.88 8.667 8.667 8.667 2.147 0 4.12-0.787 5.64-2.093l0.36 0.373v1.053l6.667 6.653 1.987-1.987-6.653-6.667zM13.841 18.667c-3.32 0-6-2.68-6-6s2.68-6 6-6c3.32 0 6 2.68 6 6s-2.68 6-6 6z"></path>
</symbol>
<symbol id="icon-Vector" viewBox="0 0 32 32">
<path d="M32 3.223l-3.223-3.223-12.777 12.777-12.777-12.777-3.223 3.223 12.777 12.777-12.777 12.777 3.223 3.223 12.777-12.777 12.777 12.777 3.223-3.223-12.777-12.777 12.777-12.777z"></path>
</symbol>
</defs>
</svg>
